<svg fill="none" height="22" viewBox="0 0 27 22" width="27" xmlns="http://www.w3.org/2000/svg"><path d="m8.49096 22c10.18874 0 15.76154-8.4648 15.76154-15.80541 0-.24043 0-.47977-.0162-.71804 1.0841-.78636 2.02-1.76001 2.7637-2.87538-1.011.44923-2.0835.74384-3.1817.87398 1.1564-.69422 2.0219-1.78612 2.4354-3.072487-1.0874.647047-2.277 1.103057-3.5175 1.348347-.8352-.890577-1.9399-1.480292-3.143-1.6778926-1.2031-.1976004-2.4376.007931-3.5125.5847886-1.0749.576854-1.9302 1.492884-2.4336 2.606324-.5034 1.11343-.6269 2.36221-.3512 3.55309-2.2024-.11072-4.35696-.68465-6.32381-1.68452-1.96685-.99988-3.70203-2.40336-5.09289-4.11932-.70838 1.22289-.925344 2.67055-.60671 4.04822.31863 1.37766 1.14889 2.58176 2.32175 3.36713-.88156-.0262-1.7439-.26467-2.51424-.69529v.0704c.00035 1.28251.44308 2.52546 1.2531 3.51796.81003.9925 1.93747 1.6734 3.1911 1.9274-.81554.223-1.67121.2556-2.50128.0953.35398 1.1038 1.04313 2.069 1.97108 2.7607.92794.6917 2.04826 1.0752 3.20428 1.097-1.96157 1.5459-4.38474 2.3851-6.8796 2.3826-.440744-.0009-.88106-.0276-1.31868-.0802 2.53329 1.6303 5.48091 2.495 8.49096 2.491" fill="#222427"/></svg>