<svg xmlns="http://www.w3.org/2000/svg" viewBox="0 0 320 320"><defs><style>.cls-1{fill:#fff;}.cls-2{fill:#dce3f3;}.cls-3{fill:#1644af;}.cls-4,.cls-5{fill:none;stroke-linecap:round;stroke-linejoin:round;}.cls-4{stroke:#000;}.cls-5{stroke:#231815;stroke-dasharray:0.28 1.98;}</style></defs><title>アートボード 1 のコピー</title><g id="レイヤー_2" data-name="レイヤー 2"><rect class="cls-1" width="320" height="320"/></g><g id="レイヤー_1" data-name="レイヤー 1"><rect class="cls-2" x="184" y="40" width="40" height="81.92"/><rect class="cls-3" x="184" y="121.92" width="40" height="131.41"/><ellipse class="cls-4" cx="204.05" cy="264" rx="7.02" ry="1.78"/><path class="cls-4" d="M211.08,278.22c0,1-3.14,1.78-7,1.78s-7-.8-7-1.78"/><line class="cls-4" x1="211.08" y1="264" x2="211.08" y2="278.22"/><line class="cls-4" x1="197.03" y1="264" x2="197.03" y2="278.22"/><path class="cls-5" d="M197,278.22c0-1,3.14-1.78,7-1.78s7,.8,7,1.78"/><rect class="cls-2" x="96" y="40" width="40" height="161.92"/><rect class="cls-3" x="96" y="201.92" width="40" height="51.41"/><ellipse class="cls-4" cx="116" cy="272.96" rx="4.01" ry="4.02"/><path class="cls-4" d="M116,265.92a7,7,0,0,0-7,7v7h14v-7A7,7,0,0,0,116,265.92Z"/><line class="cls-4" x1="119.28" y1="263.43" x2="119.28" y2="266.74"/><line class="cls-4" x1="112.72" y1="263.43" x2="112.72" y2="266.74"/><polyline class="cls-4" points="109.62 262.22 110.63 263.23 110.83 263.43 121.17 263.43 121.35 263.25 122.38 262.22"/><line class="cls-4" x1="116" y1="270.38" x2="116" y2="273.32"/></g></svg>