<svg xmlns="http://www.w3.org/2000/svg" viewBox="0 0 320 320"><defs><style>.cls-1{fill:#fff;}.cls-2{fill:none;stroke:#272222;stroke-linecap:round;stroke-linejoin:round;}.cls-3{fill:#1644af;}.cls-4{fill:#dce3f3;}</style></defs><title>アートボード 1 のコピー 2</title><g id="レイヤー_2" data-name="レイヤー 2"><rect class="cls-1" width="320" height="320"/></g><g id="レイヤー_1" data-name="レイヤー 1"><path class="cls-2" d="M143.7,165.53a1.11,1.11,0,0,0,1,1.2c.55,0,1.16.88,1.37,2l1.09,5.65a2.53,2.53,0,0,0,2.38,2H169a2.73,2.73,0,0,0,2.5-1.94l1.47-5.7c.27-1.07.94-1.94,1.49-1.94a1.11,1.11,0,0,0,1-1.2c0-.66-.9-1.2-2-1.2H145.7C144.6,164.33,143.7,164.87,143.7,165.53Z"/><path class="cls-2" d="M147.43,151.51c.51.19,1.44-.4,2.06-1.31l3.31-4.84a2.71,2.71,0,0,1,3-1l18.26,6.69a2.54,2.54,0,0,1,1.57,2.66l-.89,5.68c-.17,1.09.11,2.13.62,2.32a1.12,1.12,0,0,1,.52,1.47c-.22.62-1.25.81-2.28.44l-26-9.54c-1-.38-1.69-1.19-1.47-1.81A1.11,1.11,0,0,1,147.43,151.51Z"/><path class="cls-3" d="M160,50V98.89a61.11,61.11,0,1,1-25.83,116.5l-20.66,44.3A104,104,0,0,0,160,270a110,110,0,0,0,0-220Z"/><path class="cls-4" d="M98.89,160A61.11,61.11,0,0,1,160,98.89h0V50c-43.74,0-81.2,23.87-99.68,63.51a110,110,0,0,0,53.2,146.18l20.66-44.3A61.11,61.11,0,0,1,98.89,160Z"/></g></svg>