<svg width="170" height="80" viewBox="0 0 170 80" fill="none" xmlns="http://www.w3.org/2000/svg">
<g clip-path="url(#clip0)">
<path d="M34.9654 14.5455L25.8716 0.635498L30.6652 0.635499L37.0098 10.7326L43.4953 0.635501L48.0775 0.635502L38.9836 14.4042L38.9836 23.5128L34.9654 23.5128L34.9654 14.5455Z" fill="black"/>
<path d="M81.6333 0.635498L85.6515 0.635499L85.6515 19.8411L97.6356 19.8411L97.6356 23.5128L81.6333 23.5128L81.6333 0.635498Z" fill="black"/>
<path d="M2.46729 36.6461L11.4906 36.6461C16.8482 36.6461 20.1615 39.6822 20.1615 44.2718L20.1615 44.3424C20.1615 49.4969 16.0728 52.18 10.9972 52.18L6.48549 52.18L6.48549 59.5234L2.46728 59.5234L2.46729 36.6461ZM11.1382 48.5084C14.1694 48.5084 16.0728 46.8137 16.0728 44.413L16.0728 44.3424C16.0728 41.6593 14.1694 40.2471 11.1382 40.2471L6.48549 40.2471L6.48549 48.5084L11.1382 48.5084Z" fill="black"/>
<path d="M26.083 36.6461L36.2343 36.6461C39.1246 36.6461 41.3804 37.4934 42.8608 38.9055C44.0592 40.1765 44.7642 41.8711 44.7642 43.8482L44.7642 43.9188C44.7642 47.6611 42.5083 49.9205 39.336 50.8385L45.4691 59.5234L40.6754 59.5234L35.0359 51.5445L30.0307 51.5445L30.0307 59.5234L26.083 59.5234L26.083 36.6461ZM35.9523 47.9435C38.8426 47.9435 40.6754 46.4607 40.6754 44.1306L40.6754 44.06C40.6754 41.5887 38.9131 40.2471 35.9523 40.2471L30.1012 40.2471L30.1012 47.9435L35.9523 47.9435Z" fill="black"/>
<path d="M49.8398 48.1553C49.8398 41.6593 54.7745 36.2224 61.824 36.2224C68.8735 36.2224 73.7376 41.5181 73.7376 48.0141L73.7376 48.0847C73.7376 54.5101 68.803 59.947 61.7535 59.947C54.704 59.947 49.8398 54.5807 49.8398 48.1553ZM69.5079 48.1553C69.5079 43.6364 66.2651 39.9647 61.7535 39.9647C57.2418 39.9647 53.999 43.5657 53.999 48.0141L53.999 48.0847C53.999 52.5331 57.2418 56.2047 61.7535 56.2048C66.3356 56.1341 69.5079 52.6037 69.5079 48.1553Z" fill="black"/>
<path d="M77.1216 56.1342L79.7299 53.3804C81.0693 55.1457 82.4087 56.0636 84.3121 56.0636C86.4974 56.0636 87.9073 54.6514 87.9073 51.5446L87.9073 36.6461L92.0665 36.6461L92.0665 51.7564C92.0665 54.4396 91.2206 56.4872 89.8811 57.8288C88.5417 59.1704 86.6384 59.8765 84.3121 59.8765C80.9283 59.8059 78.6725 58.1819 77.1216 56.1342Z" fill="black"/>
<path d="M100.808 36.6461L117.726 36.6461L117.726 40.2472L104.826 40.2472L104.826 46.1783L116.246 46.1783L116.246 49.7794L104.826 49.7794L104.826 55.9224L117.938 55.9224L117.938 59.5234L100.808 59.5234L100.808 36.6461Z" fill="black"/>
<path d="M158.543 40.3178L151.282 40.3178L151.282 36.5755L169.822 36.5755L169.822 40.3178L162.561 40.3178L162.561 59.4528L158.543 59.4528L158.543 40.3178Z" fill="black"/>
<path d="M18.8221 15.8871C17.6237 18.429 15.0859 20.1942 11.9841 20.1942C7.47245 20.1942 4.22969 16.5225 4.22969 12.0742L4.22969 12.0036C4.22969 7.5552 7.40196 3.95414 11.9136 3.95414C15.0154 3.95414 17.5532 5.71936 18.8221 8.26129L23.2633 8.26129C21.7829 3.67171 17.5532 0.282474 11.9841 0.282473C4.93464 0.282472 -9.38271e-07 5.64875 -2.06173e-06 12.0742L-2.07407e-06 12.1448C-3.19753e-06 18.5702 4.86414 23.9365 11.9136 23.9365C17.4827 23.9365 21.7124 20.5473 23.2633 15.9577L18.8221 15.9577L18.8221 15.8871Z" fill="black"/>
<path d="M142.118 52.0388C140.849 54.5101 138.452 56.1341 135.35 56.1341C130.839 56.1341 127.596 52.4625 127.596 48.0141C127.596 43.5657 130.768 39.9647 135.28 39.9647C138.452 39.9647 140.99 41.8005 142.259 44.4131L146.7 44.4131C145.22 39.6823 140.99 36.2224 135.35 36.2224C128.301 36.2224 123.366 41.5887 123.366 48.0847L123.366 48.1553C123.366 54.5807 128.23 59.947 135.28 59.947C140.778 59.947 145.008 56.6284 146.559 52.1094L142.118 52.1094L142.118 52.0388Z" fill="black"/>
<path d="M62.8111 2.18165e-06C55.5501 9.12103e-07 50.3335 5.64872 50.3335 12.4978L50.3335 12.5684C50.3335 17.5816 53.1533 21.9594 57.5945 23.9364L59.6388 20.406C56.3961 19.135 54.3517 16.0988 54.3517 12.4978L54.3517 12.4272C54.3517 7.76699 57.806 3.9541 62.7406 3.9541C67.6752 3.95411 71.2705 7.76699 71.2705 12.4272L71.2705 12.4978C71.2705 15.3928 69.9311 18.0053 67.6752 19.4881L65.7719 16.2401L60.2028 25.9135L71.341 25.9135L69.6491 23.0185C73.1033 20.759 75.2887 16.8755 75.2887 12.4978L75.2887 12.4272C75.2887 5.57811 70.1426 3.46353e-06 62.8111 2.18165e-06Z" fill="black"/>
<path d="M2.46729 72.3742L5.92153 72.3742C6.76747 72.3742 7.40193 72.586 7.8249 73.0097C8.17737 73.3627 8.31836 73.7864 8.31836 74.2806C8.31836 75.128 7.89539 75.5516 7.33143 75.9047C8.17737 76.2577 8.74133 76.752 8.74133 77.7405C8.74133 79.0821 7.61341 79.7881 5.99203 79.7881L2.46728 79.7881L2.46729 72.3742ZM6.76747 74.5631C6.76747 74.0688 6.415 73.7864 5.71005 73.7864L4.08867 73.7864L4.08867 75.3398L5.56906 75.3398C6.27401 75.3398 6.76747 75.128 6.76747 74.5631ZM5.92153 76.6813L4.08867 76.6813L4.08867 78.3054L5.99203 78.3054C6.69698 78.3054 7.11995 78.0229 7.11995 77.5287C7.11995 77.0344 6.76747 76.6813 5.92153 76.6813Z" fill="black"/>
<path d="M12.6186 76.8226L9.79883 72.3036L11.7022 72.3036L13.4646 75.2692L15.2974 72.3036L17.1303 72.3036L14.3105 76.752L14.3105 79.7175L12.6891 79.7175L12.6891 76.8226L12.6186 76.8226Z" fill="black"/>
<path d="M22.9811 72.3742L24.4615 72.3742L27.9158 76.9638L27.9158 72.3742L29.5372 72.3742L29.5372 79.7881L28.1273 79.7881L24.532 75.0573L24.532 79.7881L22.9106 79.7881L22.9106 72.3742L22.9811 72.3742Z" fill="black"/>
<path d="M32.2163 72.3742L33.8377 72.3742L33.8377 79.7881L32.2163 79.7881L32.2163 72.3742Z" fill="black"/>
<path d="M36.5869 72.3742L39.6182 72.3742C41.3806 72.3742 42.438 73.4333 42.438 74.9161C42.438 76.6107 41.0986 77.5287 39.4772 77.5287L38.2083 77.5287L38.2083 79.7881L36.5869 79.7881L36.5869 72.3742ZM39.4772 76.1165C40.3231 76.1165 40.7461 75.6222 40.7461 74.9867C40.7461 74.2806 40.2526 73.857 39.4067 73.857L38.1378 73.857L38.1378 76.1165L39.4772 76.1165Z" fill="black"/>
<path d="M43.8477 72.3742L46.8789 72.3742C48.6413 72.3742 49.6987 73.4333 49.6987 74.9161C49.6987 76.6107 48.3593 77.5287 46.7379 77.5287L45.469 77.5287L45.469 79.7881L43.8477 79.7881L43.8477 72.3742ZM46.7379 76.1165C47.5839 76.1165 48.0069 75.6222 48.0069 74.9867C48.0069 74.2806 47.5134 73.857 46.6674 73.857L45.3985 73.857L45.3985 76.1165L46.7379 76.1165Z" fill="black"/>
<path d="M50.7563 76.1165C50.7563 73.9982 52.4482 72.233 54.7041 72.233C56.9599 72.233 58.6518 73.9276 58.6518 76.0459C58.6518 78.1641 56.9599 79.8587 54.7041 79.8587C52.4482 79.9293 50.7563 78.2347 50.7563 76.1165ZM56.9599 76.1165C56.9599 74.8455 56.0435 73.7864 54.7041 73.7864C53.3647 73.7864 52.4482 74.8455 52.4482 76.1165C52.4482 77.3874 53.3647 78.4466 54.7041 78.4466C56.0435 78.3759 56.9599 77.3874 56.9599 76.1165Z" fill="black"/>
<path d="M60.132 72.3742L61.6124 72.3742L65.0667 76.9638L65.0667 72.3742L66.688 72.3742L66.688 79.7881L65.2781 79.7881L61.6829 75.0573L61.6829 79.7881L60.0615 79.7881L60.0615 72.3742L60.132 72.3742Z" fill="black"/>
<path d="M73.103 72.3742L75.9933 72.3742C78.3197 72.3742 79.941 73.9982 79.941 76.0459C79.941 78.1641 78.3197 79.7881 75.9933 79.7881L73.103 79.7881L73.103 72.3742ZM74.7244 73.857L74.7244 78.3054L75.9933 78.3054C77.3327 78.3054 78.2492 77.3874 78.2492 76.1165C78.2492 74.7749 77.3327 73.857 75.9933 73.857L74.7244 73.857Z" fill="black"/>
<path d="M81.7739 72.3742L87.343 72.3742L87.343 73.857L83.3953 73.857L83.3953 75.3398L86.9201 75.3398L86.9201 76.8226L83.3953 76.8226L83.3953 78.376L87.4135 78.376L87.4135 79.8587L81.7739 79.8587L81.7739 72.3742Z" fill="black"/>
<path d="M89.0352 78.729L90.0221 77.5993C90.6565 78.1641 91.3615 78.5172 92.2074 78.5172C92.8419 78.5172 93.2648 78.2347 93.2648 77.8111C93.2648 77.3874 92.9829 77.1756 91.7844 76.8932C90.3041 76.5401 89.3171 76.1165 89.3171 74.6337C89.3171 73.2921 90.3746 72.3742 91.9254 72.3742C92.9829 72.3742 93.8993 72.7273 94.6747 73.2921L93.8288 74.4925C93.1944 74.0688 92.5599 73.7864 91.9254 73.7864C91.291 73.7864 90.9385 74.0688 90.9385 74.4219C90.9385 74.9161 91.291 75.0573 92.5599 75.4104C94.0403 75.834 94.8862 76.3283 94.8862 77.6699C94.8862 79.1527 93.7583 80 92.1369 80C91.009 79.8588 89.8811 79.5057 89.0352 78.729Z" fill="black"/>
<path d="M97.2124 72.3742L98.8338 72.3742L98.8338 79.7881L97.2124 79.7881L97.2124 72.3742Z" fill="black"/>
<path d="M100.808 76.1165C100.808 73.9982 102.429 72.233 104.685 72.233C106.024 72.233 106.8 72.586 107.575 73.2215L106.518 74.4925C105.954 73.9982 105.46 73.7158 104.614 73.7158C103.416 73.7158 102.499 74.7749 102.499 76.0459C102.499 77.3874 103.416 78.376 104.755 78.376C105.319 78.376 105.883 78.2347 106.306 77.9523L106.306 76.8932L104.685 76.8932L104.685 75.481L107.928 75.481L107.928 78.729C107.152 79.3645 106.095 79.9294 104.755 79.9294C102.359 79.9294 100.808 78.3053 100.808 76.1165Z" fill="black"/>
<path d="M109.831 72.3742L111.311 72.3742L114.765 76.9638L114.765 72.3742L116.387 72.3742L116.387 79.7881L114.977 79.7881L111.382 75.0573L111.382 79.7881L109.76 79.7881L109.76 72.3742L109.831 72.3742Z" fill="black"/>
<path d="M132.46 72.3742L138.029 72.3742L138.029 73.857L134.081 73.857L134.081 75.3398L137.606 75.3398L137.606 76.8226L134.081 76.8226L134.081 78.376L138.1 78.376L138.1 79.8587L132.46 79.8587L132.46 72.3742Z" fill="black"/>
<path d="M140.355 72.3742L141.836 72.3742L145.29 76.9638L145.29 72.3742L146.911 72.3742L146.911 79.7881L145.501 79.7881L141.906 75.0573L141.906 79.7881L140.285 79.7881L140.285 72.3742L140.355 72.3742Z" fill="black"/>
<path d="M150.859 73.857L148.603 73.857L148.603 72.3742L154.736 72.3742L154.736 73.857L152.48 73.857L152.48 79.7881L150.859 79.7881L150.859 73.857Z" fill="black"/>
<path d="M156.217 72.3742L161.786 72.3742L161.786 73.857L157.838 73.857L157.838 75.3398L161.363 75.3398L161.363 76.8226L157.838 76.8226L157.838 78.376L161.856 78.376L161.856 79.8587L156.217 79.8587L156.217 72.3742Z" fill="black"/>
<path d="M163.9 72.3742L167.284 72.3742C168.201 72.3742 168.976 72.6566 169.469 73.1509C169.892 73.5746 170.104 74.1394 170.104 74.8455C170.104 76.0459 169.469 76.8226 168.483 77.1756L170.315 79.8588L168.412 79.8587L166.791 77.458L165.522 77.458L165.522 79.8587L163.9 79.8587L163.9 72.3742ZM167.214 75.9753C167.989 75.9753 168.483 75.5516 168.483 74.9161C168.483 74.21 167.989 73.857 167.214 73.857L165.592 73.857L165.592 75.9753L167.214 75.9753Z" fill="black"/>
<path d="M2.46729 72.3742L5.92153 72.3742C6.76747 72.3742 7.40193 72.586 7.8249 73.0097C8.17737 73.3627 8.31836 73.7864 8.31836 74.2806C8.31836 75.128 7.89539 75.5516 7.33143 75.9047C8.17737 76.2577 8.74133 76.752 8.74133 77.7405C8.74133 79.0821 7.61341 79.7881 5.99203 79.7881L2.46728 79.7881L2.46729 72.3742ZM6.76747 74.5631C6.76747 74.0688 6.415 73.7864 5.71005 73.7864L4.08867 73.7864L4.08867 75.3398L5.56906 75.3398C6.27401 75.3398 6.76747 75.128 6.76747 74.5631ZM5.92153 76.6813L4.08867 76.6813L4.08867 78.3054L5.99203 78.3054C6.69698 78.3054 7.11995 78.0229 7.11995 77.5287C7.11995 77.0344 6.76747 76.6813 5.92153 76.6813Z" fill="black"/>
<path d="M12.6186 76.8226L9.79883 72.3036L11.7022 72.3036L13.4646 75.2692L15.2974 72.3036L17.1303 72.3036L14.3105 76.752L14.3105 79.7175L12.6891 79.7175L12.6891 76.8226L12.6186 76.8226Z" fill="black"/>
<path d="M22.9811 72.3742L24.4615 72.3742L27.9158 76.9638L27.9158 72.3742L29.5372 72.3742L29.5372 79.7881L28.1273 79.7881L24.532 75.0573L24.532 79.7881L22.9106 79.7881L22.9106 72.3742L22.9811 72.3742Z" fill="black"/>
<path d="M32.2163 72.3742L33.8377 72.3742L33.8377 79.7881L32.2163 79.7881L32.2163 72.3742Z" fill="black"/>
<path d="M36.5869 72.3742L39.6182 72.3742C41.3806 72.3742 42.438 73.4333 42.438 74.9161C42.438 76.6107 41.0986 77.5287 39.4772 77.5287L38.2083 77.5287L38.2083 79.7881L36.5869 79.7881L36.5869 72.3742ZM39.4772 76.1165C40.3231 76.1165 40.7461 75.6222 40.7461 74.9867C40.7461 74.2806 40.2526 73.857 39.4067 73.857L38.1378 73.857L38.1378 76.1165L39.4772 76.1165Z" fill="black"/>
<path d="M43.8477 72.3742L46.8789 72.3742C48.6413 72.3742 49.6987 73.4333 49.6987 74.9161C49.6987 76.6107 48.3593 77.5287 46.7379 77.5287L45.469 77.5287L45.469 79.7881L43.8477 79.7881L43.8477 72.3742ZM46.7379 76.1165C47.5839 76.1165 48.0069 75.6222 48.0069 74.9867C48.0069 74.2806 47.5134 73.857 46.6674 73.857L45.3985 73.857L45.3985 76.1165L46.7379 76.1165Z" fill="black"/>
<path d="M50.7563 76.1165C50.7563 73.9982 52.4482 72.233 54.7041 72.233C56.9599 72.233 58.6518 73.9276 58.6518 76.0459C58.6518 78.1641 56.9599 79.8587 54.7041 79.8587C52.4482 79.9293 50.7563 78.2347 50.7563 76.1165ZM56.9599 76.1165C56.9599 74.8455 56.0435 73.7864 54.7041 73.7864C53.3647 73.7864 52.4482 74.8455 52.4482 76.1165C52.4482 77.3874 53.3647 78.4466 54.7041 78.4466C56.0435 78.3759 56.9599 77.3874 56.9599 76.1165Z" fill="black"/>
<path d="M60.132 72.3742L61.6124 72.3742L65.0667 76.9638L65.0667 72.3742L66.688 72.3742L66.688 79.7881L65.2781 79.7881L61.6829 75.0573L61.6829 79.7881L60.0615 79.7881L60.0615 72.3742L60.132 72.3742Z" fill="black"/>
<path d="M73.103 72.3742L75.9933 72.3742C78.3197 72.3742 79.941 73.9982 79.941 76.0459C79.941 78.1641 78.3197 79.7881 75.9933 79.7881L73.103 79.7881L73.103 72.3742ZM74.7244 73.857L74.7244 78.3054L75.9933 78.3054C77.3327 78.3054 78.2492 77.3874 78.2492 76.1165C78.2492 74.7749 77.3327 73.857 75.9933 73.857L74.7244 73.857Z" fill="black"/>
<path d="M81.7739 72.3742L87.343 72.3742L87.343 73.857L83.3953 73.857L83.3953 75.3398L86.9201 75.3398L86.9201 76.8226L83.3953 76.8226L83.3953 78.376L87.4135 78.376L87.4135 79.8587L81.7739 79.8587L81.7739 72.3742Z" fill="black"/>
<path d="M89.0352 78.729L90.0221 77.5993C90.6565 78.1641 91.3615 78.5172 92.2074 78.5172C92.8419 78.5172 93.2648 78.2347 93.2648 77.8111C93.2648 77.3874 92.9829 77.1756 91.7844 76.8932C90.3041 76.5401 89.3171 76.1165 89.3171 74.6337C89.3171 73.2921 90.3746 72.3742 91.9254 72.3742C92.9829 72.3742 93.8993 72.7273 94.6747 73.2921L93.8288 74.4925C93.1944 74.0688 92.5599 73.7864 91.9254 73.7864C91.291 73.7864 90.9385 74.0688 90.9385 74.4219C90.9385 74.9161 91.291 75.0573 92.5599 75.4104C94.0403 75.834 94.8862 76.3283 94.8862 77.6699C94.8862 79.1527 93.7583 80 92.1369 80C91.009 79.8588 89.8811 79.5057 89.0352 78.729Z" fill="black"/>
<path d="M97.2124 72.3742L98.8338 72.3742L98.8338 79.7881L97.2124 79.7881L97.2124 72.3742Z" fill="black"/>
<path d="M100.808 76.1165C100.808 73.9982 102.429 72.233 104.685 72.233C106.024 72.233 106.8 72.586 107.575 73.2215L106.518 74.4925C105.954 73.9982 105.46 73.7158 104.614 73.7158C103.416 73.7158 102.499 74.7749 102.499 76.0459C102.499 77.3874 103.416 78.376 104.755 78.376C105.319 78.376 105.883 78.2347 106.306 77.9523L106.306 76.8932L104.685 76.8932L104.685 75.481L107.928 75.481L107.928 78.729C107.152 79.3645 106.095 79.9294 104.755 79.9294C102.359 79.9294 100.808 78.3053 100.808 76.1165Z" fill="black"/>
<path d="M109.831 72.3742L111.311 72.3742L114.765 76.9638L114.765 72.3742L116.387 72.3742L116.387 79.7881L114.977 79.7881L111.382 75.0573L111.382 79.7881L109.76 79.7881L109.76 72.3742L109.831 72.3742Z" fill="black"/>
<path d="M132.46 72.3742L138.029 72.3742L138.029 73.857L134.081 73.857L134.081 75.3398L137.606 75.3398L137.606 76.8226L134.081 76.8226L134.081 78.376L138.1 78.376L138.1 79.8587L132.46 79.8587L132.46 72.3742Z" fill="black"/>
<path d="M140.355 72.3742L141.836 72.3742L145.29 76.9638L145.29 72.3742L146.911 72.3742L146.911 79.7881L145.501 79.7881L141.906 75.0573L141.906 79.7881L140.285 79.7881L140.285 72.3742L140.355 72.3742Z" fill="black"/>
<path d="M150.859 73.857L148.603 73.857L148.603 72.3742L154.736 72.3742L154.736 73.857L152.48 73.857L152.48 79.7881L150.859 79.7881L150.859 73.857Z" fill="black"/>
<path d="M156.217 72.3742L161.786 72.3742L161.786 73.857L157.838 73.857L157.838 75.3398L161.363 75.3398L161.363 76.8226L157.838 76.8226L157.838 78.376L161.856 78.376L161.856 79.8587L156.217 79.8587L156.217 72.3742Z" fill="black"/>
<path d="M163.9 72.3742L167.284 72.3742C168.201 72.3742 168.976 72.6566 169.469 73.1509C169.892 73.5746 170.104 74.1394 170.104 74.8455C170.104 76.0459 169.469 76.8226 168.483 77.1756L170.315 79.8588L168.412 79.8587L166.791 77.458L165.522 77.458L165.522 79.8587L163.9 79.8587L163.9 72.3742ZM167.214 75.9753C167.989 75.9753 168.483 75.5516 168.483 74.9161C168.483 74.21 167.989 73.857 167.214 73.857L165.592 73.857L165.592 75.9753L167.214 75.9753Z" fill="black"/>
<path d="M128.724 77.3168C128.371 77.9523 127.666 78.3759 126.82 78.3759C125.481 78.3759 124.564 77.3168 124.564 76.0458C124.564 74.7749 125.481 73.7158 126.82 73.7158C127.666 73.7158 128.371 74.1394 128.724 74.7749L130.557 74.7749C130.063 73.2921 128.653 72.1624 126.82 72.1624C124.564 72.1624 122.873 73.857 122.873 75.9752C122.873 78.0935 124.494 79.7881 126.82 79.7881C128.653 79.7881 130.063 78.729 130.557 77.1756L128.724 77.1756L128.724 77.3168Z" fill="black"/>
</g>
<defs>
<clipPath id="clip0">
<rect width="170" height="80" fill="white"/>
</clipPath>
</defs>
</svg>
