<svg xmlns="http://www.w3.org/2000/svg" viewBox="0 0 303 315"><defs><style>.cls-1,.cls-3,.cls-4,.cls-5,.cls-6,.cls-7{fill:none;stroke:#272222;stroke-linecap:round;stroke-linejoin:round;}.cls-2{fill:#272222;}.cls-3,.cls-4,.cls-5,.cls-6,.cls-7{stroke-width:0.85px;}.cls-3{stroke-dasharray:0.28 1.98;}.cls-4{stroke-dasharray:0.28 1.98;}.cls-6{stroke-dasharray:0.3 2.1;}.cls-7{stroke-dasharray:0.25 1.77;}</style></defs><title>アートボード 1</title><g id="図"><circle class="cls-1" cx="51.5" cy="163.75" r="50"/><path d="M18.71,152.12v0A5.12,5.12,0,0,1,24,146.92a5.08,5.08,0,0,1,5.22,5.14v0a5.12,5.12,0,0,1-5.25,5.17A5.08,5.08,0,0,1,18.71,152.12Zm8.62,0v0a3.42,3.42,0,0,0-3.4-3.55,3.37,3.37,0,0,0-3.37,3.52v0a3.42,3.42,0,0,0,3.4,3.55A3.37,3.37,0,0,0,27.33,152.12Z"/><path d="M31.93,152.85v-5.76h1.75v5.69c0,1.86,1,2.85,2.54,2.85s2.52-.93,2.52-2.77v-5.76H40.5v5.68c0,3-1.68,4.48-4.3,4.48S31.93,155.75,31.93,152.85Z"/><path d="M46.14,148.71H43v-1.62h8.13v1.62H47.89v8.38H46.14Z"/><path d="M54.22,147.09h3.94c2.34,0,3.81,1.33,3.81,3.34v0c0,2.24-1.8,3.41-4,3.41H56v3.22H54.22Zm3.8,5.2c1.33,0,2.16-.74,2.16-1.79v0c0-1.17-.84-1.79-2.16-1.79H56v3.6Z"/><path d="M64.4,152.85v-5.76h1.75v5.69c0,1.86,1,2.85,2.54,2.85s2.52-.93,2.52-2.77v-5.76H73v5.68c0,3-1.68,4.48-4.3,4.48S64.4,155.75,64.4,152.85Z"/><path d="M78.6,148.71H75.41v-1.62h8.13v1.62H80.35v8.38H78.6Z"/><line class="cls-1" x1="64.94" y1="191.71" x2="38.06" y2="191.71"/><line class="cls-1" x1="51.5" y1="184.71" x2="51.5" y2="167.79"/><polygon class="cls-2" points="55.59 171.11 54.86 171.79 51.5 168.18 48.14 171.79 47.41 171.11 51.5 166.71 55.59 171.11"/><circle class="cls-1" cx="251.5" cy="163.75" r="50"/><path d="M220.11,157.39l-1.2-1.07a5.21,5.21,0,0,1-3,.94,5.08,5.08,0,0,1-5.22-5.14v0a5.23,5.23,0,0,1,10.46,0v0a5.15,5.15,0,0,1-1,3.08l1.14,1Zm-2.49-2.2-1.73-1.49,1.13-1.29,1.76,1.6a3.76,3.76,0,0,0,.49-1.9v0a3.42,3.42,0,0,0-3.4-3.55,3.37,3.37,0,0,0-3.37,3.52v0a3.44,3.44,0,0,0,5.13,3.1Z"/><path d="M223.6,152.85v-5.76h1.75v5.69c0,1.86,1,2.85,2.54,2.85s2.52-.93,2.52-2.77v-5.76h1.75v5.68c0,3-1.68,4.48-4.3,4.48S223.6,155.75,223.6,152.85Z"/><path d="M235.1,147.09h7.42v1.57h-5.66v2.6h5v1.58h-5v2.68h5.73v1.57H235.1Z"/><path d="M244.53,155.64l1.06-1.26a4.63,4.63,0,0,0,3.16,1.3c1.09,0,1.78-.52,1.78-1.26v0c0-.72-.4-1.1-2.26-1.53-2.13-.51-3.33-1.14-3.33-3v0c0-1.72,1.43-2.9,3.41-2.9A5.53,5.53,0,0,1,252,148.2l-.94,1.33a4.54,4.54,0,0,0-2.72-1c-1,0-1.63.53-1.63,1.19v0c0,.77.46,1.12,2.39,1.57,2.12.52,3.2,1.27,3.2,2.93v0c0,1.87-1.47,3-3.57,3A6.15,6.15,0,0,1,244.53,155.64Z"/><path d="M257.39,148.71H254.2v-1.62h8.13v1.62h-3.19v8.38h-1.75Z"/><path d="M264.79,147.09h1.75v10h-1.75Z"/><path d="M269.3,152.12v0a5.23,5.23,0,0,1,10.46,0v0a5.23,5.23,0,0,1-10.46,0Zm8.62,0v0a3.42,3.42,0,0,0-3.4-3.55,3.37,3.37,0,0,0-3.37,3.52v0a3.42,3.42,0,0,0,3.4,3.55A3.37,3.37,0,0,0,277.92,152.12Z"/><path d="M282.15,147.09h1.63l5.37,6.92v-6.92h1.73v10H289.4L283.88,150v7.12h-1.73Z"/><path class="cls-1" d="M251.5,166.71a11.87,11.87,0,0,0-12.06,12.06v.07a11.85,11.85,0,0,0,7,11l2-3.41a8,8,0,0,1-5.11-7.63v-.07a8,8,0,0,1,8.11-8.17,8.08,8.08,0,0,1,8.24,8.17v.07a8,8,0,0,1-3.47,6.74l-1.84-3.13L249,191.71h10.76l-1.63-2.79a12.05,12.05,0,0,0,5.45-10.15v-.07A11.77,11.77,0,0,0,251.5,166.71Z"/><circle class="cls-1" cx="151.5" cy="263.75" r="50"/><path d="M109.93,247.09h4.23a3.73,3.73,0,0,1,2.74,1,3.11,3.11,0,0,1,.79,2.16v0a3,3,0,0,1-2.26,3l2.57,3.78h-2l-2.34-3.48h-2.09v3.48h-1.67Zm4.11,5c1.19,0,2-.66,2-1.68v0c0-1.07-.73-1.66-2-1.66h-2.43v3.37Z"/><path d="M120.74,247.09h7v1.57H122.4v2.6h4.77v1.58H122.4v2.68h5.45v1.57h-7.11Z"/><path d="M130.19,255.64l1-1.26a4.28,4.28,0,0,0,3,1.3c1,0,1.69-.52,1.69-1.26v0c0-.72-.38-1.1-2.15-1.53-2-.51-3.16-1.14-3.16-3v0a3,3,0,0,1,3.24-2.9,5.09,5.09,0,0,1,3.45,1.26l-.89,1.33a4.19,4.19,0,0,0-2.58-1c-1,0-1.55.53-1.55,1.19v0c0,.77.44,1.12,2.27,1.57,2,.52,3,1.27,3,2.93v0c0,1.87-1.4,3-3.39,3A5.68,5.68,0,0,1,130.19,255.64Z"/><path d="M140.51,247.09h7v1.57h-5.38v2.6h4.77v1.58h-4.77v2.68h5.45v1.57h-7.11Z"/><path d="M154,247h1.55l4.18,10.09h-1.77l-1-2.42h-4.5l-1,2.42h-1.71Zm2.39,6.11-1.64-4-1.63,4Z"/><path d="M162.32,247.09h4.23a3.73,3.73,0,0,1,2.74,1,3.11,3.11,0,0,1,.79,2.16v0a3,3,0,0,1-2.26,3l2.57,3.78h-2l-2.34-3.48H164v3.48h-1.67Zm4.11,5c1.19,0,2-.66,2-1.68v0c0-1.07-.73-1.66-2-1.66H164v3.37Z"/><path d="M172.71,252.12v0a4.94,4.94,0,0,1,4.89-5.17,4.85,4.85,0,0,1,3.74,1.55l-1.07,1.3a3.71,3.71,0,0,0-2.68-1.23,3.29,3.29,0,0,0-3.12,3.52v0a3.3,3.3,0,0,0,3.14,3.55,3.63,3.63,0,0,0,2.73-1.29l1.07,1.14a4.81,4.81,0,0,1-3.86,1.77A4.9,4.9,0,0,1,172.71,252.12Z"/><path d="M184.16,247.09h1.67v4.16h4.55v-4.16H192v10h-1.67v-4.23h-4.55v4.23h-1.67Z"/><path class="cls-1" d="M152.77,281.72v1.37l8.65,8.63,2.58-2.58-8.63-8.65H154Z"/><ellipse class="cls-1" cx="146.27" cy="273.98" rx="7.27" ry="7.27"/><path class="cls-3" d="M253.53,213.71a113,113,0,0,1-51.2,52.93"/><polygon class="cls-2" points="203.2 262.24 204 262.52 202.61 266.47 206.65 267.58 206.43 268.4 201.5 267.05 203.2 262.24"/><path class="cls-4" d="M178.88,57.07c31.05,7.49,56.9,28.38,71.71,55.86"/><polygon class="cls-2" points="246.16 112.19 246.42 111.38 250.41 112.66 251.4 108.58 252.22 108.78 251.02 113.75 246.16 112.19"/><path class="cls-5" d="M147.36,53.86h.14"/><path class="cls-6" d="M149.6,53.77l1.9,0s2.68.06,6.64.34"/><path class="cls-5" d="M159.19,54.16h.14"/><path class="cls-5" d="M135.28,55l.14,0"/><path class="cls-7" d="M137.18,54.76c1-.12,2-.24,3.14-.36"/><path class="cls-5" d="M141.2,54.31h.14"/><path class="cls-4" d="M52,113.75a112.67,112.67,0,0,1,77.3-57.81"/><path class="cls-3" d="M101.61,267.11a113,113,0,0,1-51.74-52.56"/><polygon class="cls-2" points="54.24 215.53 53.94 216.32 50.02 214.83 48.82 218.85 48.01 218.6 49.47 213.71 54.24 215.53"/><path class="cls-1" d="M179.74,48.39l-2,20.48c0,1.31-3.79,2.38-8.46,2.38s-8.45-1.07-8.45-2.38l-2-20.48c0,1.64,4.7,3,10.5,3s10.5-1.33,10.5-3"/><polyline class="cls-1" points="163.16 40.02 162.57 38.45 165.32 37.02 167.22 38.41 167.78 40.71 166.8 42.57 163.63 42.62 162.47 40.67 163.56 39.88 164.78 39.47 165.73 40.28"/><path class="cls-1" d="M158.75,48.41c0-1.63,4.7-3,10.5-3s10.5,1.32,10.5,3"/><path class="cls-1" d="M147.37,45.74V68.25a3,3,0,0,1-6,0V50.12a3,3,0,0,0-3-3h0a3,3,0,0,0-3,3V68.25a3,3,0,0,1-6,0V46.37a3,3,0,0,1-6,0V30.08a15.1,15.1,0,0,1,11.62-14.66V13.88a6.82,6.82,0,1,1,6.9,0v1.53c12.95,2.9,10.65,19.51,10.65,19.51l4.84-4.56a3,3,0,0,1,2.12-.87,3,3,0,0,1,2.13.88h0a3,3,0,0,1,.88,2.13,3,3,0,0,1-.87,2.12l-8.27,7.17s-3.15,3.43-5.9,0"/><line class="cls-1" x1="147.37" y1="45.74" x2="147.37" y2="30.04"/><path class="cls-1" d="M129.28,30.67v15.7a3,3,0,0,1-3,3h0a3,3,0,0,1-3-3V30.67"/><path class="cls-1" d="M157.27,30.36a3,3,0,0,1,2.12-.87,3,3,0,0,1,3,3"/></g></svg>