<svg width="80" height="170" viewBox="0 0 80 170" fill="none" xmlns="http://www.w3.org/2000/svg">
<g clip-path="url(#clip0)">
<path d="M65.4545 34.9655L79.3645 25.8716L79.3645 30.6653L69.2674 37.0098L79.3645 43.4953L79.3645 48.0775L65.5957 38.9837L56.4872 38.9837L56.4872 34.9655L65.4545 34.9655Z" fill="black"/>
<path d="M79.3645 81.6331L79.3645 85.6513L60.1589 85.6513L60.1589 97.6354L56.4872 97.6354L56.4872 81.6331L79.3645 81.6331Z" fill="black"/>
<path d="M43.3539 2.46732L43.3539 11.4907C43.3539 16.8483 40.3177 20.1615 35.7281 20.1615L35.6575 20.1615C30.503 20.1615 27.8199 16.0728 27.8199 10.9972L27.8199 6.48552L20.4766 6.48552L20.4766 2.46731L43.3539 2.46732ZM31.4916 11.1382C31.4916 14.1695 33.1862 16.0728 35.5869 16.0728L35.6575 16.0728C38.3406 16.0728 39.7528 14.1695 39.7528 11.1382L39.7528 6.48552L31.4916 6.48552L31.4916 11.1382Z" fill="black"/>
<path d="M43.3539 26.0831L43.3539 36.2344C43.3539 39.1247 42.5066 41.3805 41.0944 42.8609C39.8234 44.0593 38.1288 44.7643 36.1518 44.7643L36.0812 44.7643C32.3389 44.7643 30.0794 42.5084 29.1615 39.3362L20.4766 45.4692L20.4766 40.6756L28.4554 35.036L28.4554 30.0308L20.4766 30.0308L20.4766 26.0831L43.3539 26.0831ZM32.0564 35.9524C32.0564 38.8427 33.5392 40.6756 35.8693 40.6756L35.9399 40.6756C38.4113 40.6756 39.7528 38.9132 39.7528 35.9524L39.7528 30.1013L32.0564 30.1013L32.0564 35.9524Z" fill="black"/>
<path d="M31.8447 49.8398C38.3407 49.8398 43.7776 54.7745 43.7776 61.824C43.7776 68.8735 38.4819 73.7376 31.9859 73.7376L31.9153 73.7376C25.4899 73.7376 20.053 68.803 20.053 61.7535C20.053 54.704 25.4193 49.8398 31.8447 49.8398ZM31.8447 69.5079C36.3636 69.5079 40.0353 66.2652 40.0353 61.7535C40.0353 57.2418 36.4343 53.999 31.9859 53.999L31.9153 53.999C27.4669 53.999 23.7952 57.2418 23.7952 61.7535C23.8658 66.3356 27.3963 69.5079 31.8447 69.5079Z" fill="black"/>
<path d="M23.8658 77.1214L26.6196 79.7297C24.8543 81.0691 23.9364 82.4085 23.9364 84.3119C23.9364 86.4972 25.3486 87.9071 28.4554 87.9071L43.3539 87.9071L43.3539 92.0663L28.2436 92.0663C25.5604 92.0663 23.5128 91.2204 22.1712 89.881C20.8296 88.5416 20.1235 86.6382 20.1235 84.3119C20.1941 80.9281 21.8181 78.6723 23.8658 77.1214Z" fill="black"/>
<path d="M43.3539 100.808L43.3539 117.726L39.7528 117.726L39.7528 104.826L33.8217 104.826L33.8217 116.246L30.2206 116.246L30.2206 104.826L24.0776 104.826L24.0776 117.938L20.4766 117.938L20.4766 100.808L43.3539 100.808Z" fill="black"/>
<path d="M39.6822 158.543L39.6822 151.282L43.4245 151.282L43.4245 169.822L39.6822 169.822L39.6822 162.561L20.5472 162.561L20.5472 158.543L39.6822 158.543Z" fill="black"/>
<path d="M64.1129 18.8221C61.571 17.6237 59.8058 15.0859 59.8058 11.9841C59.8058 7.47246 63.4775 4.2297 67.9258 4.2297L67.9964 4.2297C72.4448 4.2297 76.0459 7.40196 76.0459 11.9136C76.0459 15.0154 74.2806 17.5532 71.7387 18.8221L71.7387 23.2633C76.3283 21.7829 79.7175 17.5532 79.7175 11.9841C79.7175 4.93464 74.3512 3.58013e-06 67.9258 3.29927e-06L67.8552 3.29618e-06C61.4298 3.01532e-06 56.0635 4.86415 56.0635 11.9136C56.0635 17.4827 59.4527 21.7124 64.0423 23.2633L64.0423 18.8221L64.1129 18.8221Z" fill="black"/>
<path d="M27.9612 142.118C25.4899 140.849 23.8658 138.452 23.8658 135.35C23.8659 130.838 27.5375 127.596 31.9859 127.596C36.4343 127.596 40.0353 130.768 40.0353 135.28C40.0353 138.452 38.1995 140.99 35.5869 142.259L35.5869 146.7C40.3177 145.219 43.7776 140.99 43.7776 135.35C43.7776 128.301 38.4113 123.366 31.9153 123.366L31.8447 123.366C25.4193 123.366 20.053 128.23 20.053 135.28C20.053 140.778 23.3716 145.008 27.8906 146.559L27.8906 142.118L27.9612 142.118Z" fill="black"/>
<path d="M80 62.8109C80 55.55 74.3513 50.3333 67.5022 50.3333L67.4316 50.3333C62.4184 50.3333 58.0406 53.1531 56.0636 57.5943L59.594 59.6387C60.865 56.3959 63.9011 54.3515 67.5022 54.3515L67.5728 54.3515C72.233 54.3515 76.0459 57.8058 76.0459 62.7404C76.0459 67.6751 72.233 71.2703 67.5728 71.2703L67.5022 71.2703C64.6072 71.2703 61.9947 69.9309 60.5119 67.6751L63.7599 65.7717L54.0865 60.2026L54.0865 71.3408L56.9815 69.6489C59.241 73.1032 63.1244 75.2885 67.5022 75.2885L67.5728 75.2885C74.4219 75.2885 80 70.1424 80 62.8109Z" fill="black"/>
<path d="M7.62573 2.46731L7.62573 5.92156C7.62573 6.7675 7.4139 7.40195 6.99025 7.82492C6.63721 8.1774 6.21356 8.31839 5.71929 8.31839C4.87199 8.31839 4.44833 7.89542 4.09529 7.33146C3.74224 8.1774 3.24798 8.74135 2.25946 8.74135C0.917889 8.74135 0.211799 7.61344 0.211799 5.99205L0.2118 2.46731L7.62573 2.46731ZM5.43686 6.7675C5.93112 6.7675 6.21355 6.41502 6.21355 5.71008L6.21355 4.08869L4.66016 4.08869L4.66016 5.56909C4.66016 6.27403 4.87199 6.7675 5.43686 6.7675ZM3.31859 5.92156L3.31859 4.08869L1.69458 4.08869L1.69458 5.99205C1.69458 6.697 1.97702 7.11997 2.47128 7.11997C2.96554 7.11997 3.31859 6.7675 3.31859 5.92156Z" fill="black"/>
<path d="M3.17737 12.6185L7.69635 9.79875L7.69635 11.7021L4.73077 13.4645L7.69635 15.2974L7.69635 17.1302L3.24798 14.3104L0.282402 14.3104L0.282402 12.689L3.17737 12.689L3.17737 12.6185Z" fill="black"/>
<path d="M7.62573 22.9813L7.62573 24.4617L3.03615 27.9159L7.62573 27.9159L7.62573 29.5373L0.211799 29.5373L0.211799 28.1274L4.94259 24.5322L0.2118 24.5322L0.2118 22.9108L7.62573 22.9108L7.62573 22.9813Z" fill="black"/>
<path d="M7.62573 32.2161L7.62573 33.8375L0.2118 33.8375L0.2118 32.2161L7.62573 32.2161Z" fill="black"/>
<path d="M7.62573 36.5869L7.62573 39.6181C7.62573 41.3805 6.5666 42.4379 5.08381 42.4379C3.3892 42.4379 2.47128 41.0985 2.47128 39.4771L2.47128 38.2082L0.2118 38.2082L0.2118 36.5869L7.62573 36.5869ZM3.88346 39.4771C3.88346 40.3231 4.37773 40.746 5.01321 40.746C5.71929 40.746 6.14295 40.2526 6.14295 39.4066L6.14295 38.1377L3.88346 38.1377L3.88346 39.4771Z" fill="black"/>
<path d="M7.62573 43.8478L7.62573 46.8791C7.62573 48.6415 6.5666 49.6989 5.08381 49.6989C3.3892 49.6989 2.47128 48.3595 2.47128 46.7381L2.47128 45.4692L0.2118 45.4692L0.2118 43.8478L7.62573 43.8478ZM3.88346 46.7381C3.88346 47.584 4.37773 48.007 5.01321 48.007C5.71929 48.007 6.14295 47.5135 6.14295 46.6676L6.14295 45.3987L3.88346 45.3987L3.88346 46.7381Z" fill="black"/>
<path d="M3.88348 50.7563C6.00174 50.7563 7.76697 52.4482 7.76697 54.704C7.76697 56.9599 6.07236 58.6518 3.95409 58.6518C1.83582 58.6518 0.141206 56.9599 0.141206 54.704C0.0705966 52.4482 1.76521 50.7563 3.88348 50.7563ZM3.88348 56.9599C5.15444 56.9599 6.21357 56.0434 6.21357 54.704C6.21357 53.3646 5.15444 52.4482 3.88348 52.4482C2.61252 52.4482 1.55338 53.3646 1.55338 54.704C1.62399 56.0434 2.61252 56.9599 3.88348 56.9599Z" fill="black"/>
<path d="M7.62573 60.1321L7.62573 61.6125L3.03615 65.0667L7.62573 65.0667L7.62573 66.6881L0.211799 66.6881L0.211799 65.2782L4.94259 61.683L0.2118 61.683L0.2118 60.0616L7.62573 60.0616L7.62573 60.1321Z" fill="black"/>
<path d="M7.62573 73.1031L7.62573 75.9934C7.62573 78.3198 6.00173 79.9412 3.95407 79.9412C1.83581 79.9412 0.211799 78.3198 0.211799 75.9934L0.2118 73.1031L7.62573 73.1031ZM6.14295 74.7245L1.69458 74.7245L1.69458 75.9934C1.69458 77.3329 2.6125 78.2493 3.88346 78.2493C5.22503 78.2493 6.14295 77.3329 6.14295 75.9934L6.14295 74.7245Z" fill="black"/>
<path d="M7.62573 81.774L7.62573 87.3431L6.14295 87.3431L6.14295 83.3954L4.66016 83.3954L4.66016 86.9201L3.17737 86.9201L3.17737 83.3954L1.62398 83.3954L1.62398 87.4136L0.14119 87.4136L0.14119 81.774L7.62573 81.774Z" fill="black"/>
<path d="M1.27093 89.035L2.40067 90.0219C1.8358 90.6564 1.48275 91.3613 1.48275 92.2073C1.48275 92.8417 1.76519 93.2647 2.18884 93.2647C2.6125 93.2647 2.82432 92.9827 3.10676 91.7843C3.4598 90.3039 3.88346 89.317 5.36625 89.317C6.70782 89.317 7.62573 90.3744 7.62573 91.9253C7.62573 92.9827 7.27269 93.8992 6.70781 94.6746L5.50746 93.8287C5.93112 93.1942 6.21355 92.5598 6.21355 91.9253C6.21355 91.2908 5.93112 90.9384 5.57807 90.9384C5.08381 90.9384 4.94259 91.2909 4.58954 92.5598C4.16589 94.0402 3.67163 94.8861 2.33006 94.8861C0.847271 94.8861 -3.83534e-05 93.7582 -3.82826e-05 92.1368C0.141179 91.0089 0.494226 89.881 1.27093 89.035Z" fill="black"/>
<path d="M7.62573 97.2124L7.62573 98.8338L0.2118 98.8338L0.2118 97.2124L7.62573 97.2124Z" fill="black"/>
<path d="M3.88347 100.808C6.00174 100.808 7.76697 102.429 7.76697 104.685C7.76697 106.024 7.41393 106.8 6.77845 107.575L5.50748 106.518C6.00174 105.954 6.28418 105.46 6.28418 104.614C6.28418 103.416 5.22505 102.5 3.95408 102.5C2.61251 102.5 1.62398 103.416 1.62398 104.755C1.62398 105.319 1.7652 105.883 2.04764 106.306L3.10677 106.306L3.10677 104.685L4.51895 104.685L4.51895 107.928L1.27094 107.928C0.635457 107.152 0.0705874 106.095 0.0705875 104.755C0.0705876 102.359 1.69459 100.808 3.88347 100.808Z" fill="black"/>
<path d="M7.62573 109.831L7.62573 111.311L3.03615 114.766L7.62573 114.766L7.62573 116.387L0.211799 116.387L0.211799 114.977L4.94259 111.382L0.2118 111.382L0.2118 109.761L7.62573 109.761L7.62573 109.831Z" fill="black"/>
<path d="M7.62573 132.46L7.62573 138.029L6.14295 138.029L6.14295 134.081L4.66016 134.081L4.66016 137.606L3.17737 137.606L3.17737 134.081L1.62398 134.081L1.62398 138.099L0.14119 138.099L0.14119 132.46L7.62573 132.46Z" fill="black"/>
<path d="M7.62573 140.355L7.62573 141.836L3.03615 145.29L7.62573 145.29L7.62573 146.911L0.211799 146.911L0.211799 145.501L4.94259 141.906L0.2118 141.906L0.2118 140.285L7.62573 140.285L7.62573 140.355Z" fill="black"/>
<path d="M6.14295 150.859L6.14295 148.603L7.62573 148.603L7.62573 154.736L6.14295 154.736L6.14295 152.48L0.211799 152.48L0.2118 150.859L6.14295 150.859Z" fill="black"/>
<path d="M7.62573 156.217L7.62573 161.786L6.14295 161.786L6.14295 157.838L4.66016 157.838L4.66016 161.363L3.17737 161.363L3.17737 157.838L1.62398 157.838L1.62398 161.856L0.14119 161.856L0.14119 156.217L7.62573 156.217Z" fill="black"/>
<path d="M7.62573 163.901L7.62573 167.284C7.62573 168.201 7.3433 168.976 6.84904 169.47C6.42538 169.893 5.86051 170.104 5.15442 170.104C3.95407 170.104 3.17737 169.47 2.82432 168.483L0.14119 170.316L0.14119 168.412L2.54189 166.791L2.54189 165.522L0.14119 165.522L0.14119 163.901L7.62573 163.901ZM4.02468 167.214C4.02468 167.989 4.44833 168.483 5.08381 168.483C5.7899 168.483 6.14295 167.989 6.14295 167.214L6.14295 165.592L4.02468 165.592L4.02468 167.214Z" fill="black"/>
<path d="M7.62573 2.46731L7.62573 5.92156C7.62573 6.7675 7.4139 7.40195 6.99025 7.82492C6.63721 8.1774 6.21356 8.31839 5.71929 8.31839C4.87199 8.31839 4.44833 7.89542 4.09529 7.33146C3.74224 8.1774 3.24798 8.74135 2.25946 8.74135C0.917889 8.74135 0.211799 7.61344 0.211799 5.99205L0.2118 2.46731L7.62573 2.46731ZM5.43686 6.7675C5.93112 6.7675 6.21355 6.41502 6.21355 5.71008L6.21355 4.08869L4.66016 4.08869L4.66016 5.56909C4.66016 6.27403 4.87199 6.7675 5.43686 6.7675ZM3.31859 5.92156L3.31859 4.08869L1.69458 4.08869L1.69458 5.99205C1.69458 6.697 1.97702 7.11997 2.47128 7.11997C2.96554 7.11997 3.31859 6.7675 3.31859 5.92156Z" fill="black"/>
<path d="M3.17737 12.6185L7.69635 9.79875L7.69635 11.7021L4.73077 13.4645L7.69635 15.2974L7.69635 17.1302L3.24798 14.3104L0.282402 14.3104L0.282402 12.689L3.17737 12.689L3.17737 12.6185Z" fill="black"/>
<path d="M7.62573 22.9813L7.62573 24.4617L3.03615 27.9159L7.62573 27.9159L7.62573 29.5373L0.211799 29.5373L0.211799 28.1274L4.94259 24.5322L0.2118 24.5322L0.2118 22.9108L7.62573 22.9108L7.62573 22.9813Z" fill="black"/>
<path d="M7.62573 32.2161L7.62573 33.8375L0.2118 33.8375L0.2118 32.2161L7.62573 32.2161Z" fill="black"/>
<path d="M7.62573 36.5869L7.62573 39.6181C7.62573 41.3805 6.5666 42.4379 5.08381 42.4379C3.3892 42.4379 2.47128 41.0985 2.47128 39.4771L2.47128 38.2082L0.2118 38.2082L0.2118 36.5869L7.62573 36.5869ZM3.88346 39.4771C3.88346 40.3231 4.37773 40.746 5.01321 40.746C5.71929 40.746 6.14295 40.2526 6.14295 39.4066L6.14295 38.1377L3.88346 38.1377L3.88346 39.4771Z" fill="black"/>
<path d="M7.62573 43.8478L7.62573 46.8791C7.62573 48.6415 6.5666 49.6989 5.08381 49.6989C3.3892 49.6989 2.47128 48.3595 2.47128 46.7381L2.47128 45.4692L0.2118 45.4692L0.2118 43.8478L7.62573 43.8478ZM3.88346 46.7381C3.88346 47.584 4.37773 48.007 5.01321 48.007C5.71929 48.007 6.14295 47.5135 6.14295 46.6676L6.14295 45.3987L3.88346 45.3987L3.88346 46.7381Z" fill="black"/>
<path d="M3.88348 50.7563C6.00174 50.7563 7.76697 52.4482 7.76697 54.704C7.76697 56.9599 6.07236 58.6518 3.95409 58.6518C1.83582 58.6518 0.141206 56.9599 0.141206 54.704C0.0705966 52.4482 1.76521 50.7563 3.88348 50.7563ZM3.88348 56.9599C5.15444 56.9599 6.21357 56.0434 6.21357 54.704C6.21357 53.3646 5.15444 52.4482 3.88348 52.4482C2.61252 52.4482 1.55338 53.3646 1.55338 54.704C1.62399 56.0434 2.61252 56.9599 3.88348 56.9599Z" fill="black"/>
<path d="M7.62573 60.1321L7.62573 61.6125L3.03615 65.0667L7.62573 65.0667L7.62573 66.6881L0.211799 66.6881L0.211799 65.2782L4.94259 61.683L0.2118 61.683L0.2118 60.0616L7.62573 60.0616L7.62573 60.1321Z" fill="black"/>
<path d="M7.62573 73.1031L7.62573 75.9934C7.62573 78.3198 6.00173 79.9412 3.95407 79.9412C1.83581 79.9412 0.211799 78.3198 0.211799 75.9934L0.2118 73.1031L7.62573 73.1031ZM6.14295 74.7245L1.69458 74.7245L1.69458 75.9934C1.69458 77.3329 2.6125 78.2493 3.88346 78.2493C5.22503 78.2493 6.14295 77.3329 6.14295 75.9934L6.14295 74.7245Z" fill="black"/>
<path d="M7.62573 81.774L7.62573 87.3431L6.14295 87.3431L6.14295 83.3954L4.66016 83.3954L4.66016 86.9201L3.17737 86.9201L3.17737 83.3954L1.62398 83.3954L1.62398 87.4136L0.14119 87.4136L0.14119 81.774L7.62573 81.774Z" fill="black"/>
<path d="M1.27093 89.035L2.40067 90.0219C1.8358 90.6564 1.48275 91.3613 1.48275 92.2073C1.48275 92.8417 1.76519 93.2647 2.18884 93.2647C2.6125 93.2647 2.82432 92.9827 3.10676 91.7843C3.4598 90.3039 3.88346 89.317 5.36625 89.317C6.70782 89.317 7.62573 90.3744 7.62573 91.9253C7.62573 92.9827 7.27269 93.8992 6.70781 94.6746L5.50746 93.8287C5.93112 93.1942 6.21355 92.5598 6.21355 91.9253C6.21355 91.2908 5.93112 90.9384 5.57807 90.9384C5.08381 90.9384 4.94259 91.2909 4.58954 92.5598C4.16589 94.0402 3.67163 94.8861 2.33006 94.8861C0.847271 94.8861 -3.83534e-05 93.7582 -3.82826e-05 92.1368C0.141179 91.0089 0.494226 89.881 1.27093 89.035Z" fill="black"/>
<path d="M7.62573 97.2124L7.62573 98.8338L0.2118 98.8338L0.2118 97.2124L7.62573 97.2124Z" fill="black"/>
<path d="M3.88347 100.808C6.00174 100.808 7.76697 102.429 7.76697 104.685C7.76697 106.024 7.41393 106.8 6.77845 107.575L5.50748 106.518C6.00174 105.954 6.28418 105.46 6.28418 104.614C6.28418 103.416 5.22505 102.5 3.95408 102.5C2.61251 102.5 1.62398 103.416 1.62398 104.755C1.62398 105.319 1.7652 105.883 2.04764 106.306L3.10677 106.306L3.10677 104.685L4.51895 104.685L4.51895 107.928L1.27094 107.928C0.635457 107.152 0.0705874 106.095 0.0705875 104.755C0.0705876 102.359 1.69459 100.808 3.88347 100.808Z" fill="black"/>
<path d="M7.62573 109.831L7.62573 111.311L3.03615 114.766L7.62573 114.766L7.62573 116.387L0.211799 116.387L0.211799 114.977L4.94259 111.382L0.2118 111.382L0.2118 109.761L7.62573 109.761L7.62573 109.831Z" fill="black"/>
<path d="M7.62573 132.46L7.62573 138.029L6.14295 138.029L6.14295 134.081L4.66016 134.081L4.66016 137.606L3.17737 137.606L3.17737 134.081L1.62398 134.081L1.62398 138.099L0.14119 138.099L0.14119 132.46L7.62573 132.46Z" fill="black"/>
<path d="M7.62573 140.355L7.62573 141.836L3.03615 145.29L7.62573 145.29L7.62573 146.911L0.211799 146.911L0.211799 145.501L4.94259 141.906L0.2118 141.906L0.2118 140.285L7.62573 140.285L7.62573 140.355Z" fill="black"/>
<path d="M6.14295 150.859L6.14295 148.603L7.62573 148.603L7.62573 154.736L6.14295 154.736L6.14295 152.48L0.211799 152.48L0.2118 150.859L6.14295 150.859Z" fill="black"/>
<path d="M7.62573 156.217L7.62573 161.786L6.14295 161.786L6.14295 157.838L4.66016 157.838L4.66016 161.363L3.17737 161.363L3.17737 157.838L1.62398 157.838L1.62398 161.856L0.14119 161.856L0.14119 156.217L7.62573 156.217Z" fill="black"/>
<path d="M7.62573 163.901L7.62573 167.284C7.62573 168.201 7.3433 168.976 6.84904 169.47C6.42538 169.893 5.86051 170.104 5.15442 170.104C3.95407 170.104 3.17737 169.47 2.82432 168.483L0.14119 170.316L0.14119 168.412L2.54189 166.791L2.54189 165.522L0.14119 165.522L0.14119 163.901L7.62573 163.901ZM4.02468 167.214C4.02468 167.989 4.44833 168.483 5.08381 168.483C5.7899 168.483 6.14295 167.989 6.14295 167.214L6.14295 165.592L4.02468 165.592L4.02468 167.214Z" fill="black"/>
<path d="M2.68313 128.724C2.04765 128.371 1.62399 127.666 1.62399 126.82C1.62399 125.481 2.68313 124.564 3.95409 124.564C5.22505 124.564 6.28418 125.481 6.28418 126.82C6.28418 127.666 5.86053 128.371 5.22505 128.724L5.22505 130.557C6.70784 130.063 7.83759 128.653 7.83759 126.82C7.83759 124.564 6.14297 122.873 4.0247 122.873C1.90643 122.873 0.211815 124.494 0.211815 126.82C0.211815 128.653 1.27095 130.063 2.82434 130.557L2.82434 128.724L2.68313 128.724Z" fill="black"/>
</g>
<defs>
<clipPath id="clip0">
<rect width="170" height="80" fill="white" transform="translate(80) rotate(90)"/>
</clipPath>
</defs>
</svg>
